<svg id="Layer_1" data-name="Layer 1" xmlns="http://www.w3.org/2000/svg" xmlns:xlink="http://www.w3.org/1999/xlink" viewBox="0 0 500 170.72"><defs><style>.cls-1{fill:#fff;}.cls-2{fill:#603;}.cls-3{fill:url(#linear-gradient);}.cls-4{fill:url(#linear-gradient-2);}.cls-5{fill:url(#linear-gradient-3);}.cls-6{fill:url(#linear-gradient-4);}.cls-7{fill:url(#linear-gradient-5);}.cls-8{fill:url(#linear-gradient-6);}.cls-9{fill:url(#linear-gradient-7);}.cls-10{fill:url(#linear-gradient-8);}.cls-11{fill:url(#linear-gradient-9);}.cls-12{fill:url(#linear-gradient-10);}.cls-13{fill:url(#linear-gradient-11);}.cls-14{fill:url(#linear-gradient-12);}</style><linearGradient id="linear-gradient" x1="46.53" y1="99.91" x2="46.53" y2="151.39" gradientUnits="userSpaceOnUse"><stop offset="0" stop-color="#e6d6ff"/><stop offset="1" stop-color="purple"/></linearGradient><linearGradient id="linear-gradient-2" x1="104.94" y1="99.91" x2="104.94" y2="151.39" xlink:href="#linear-gradient"/><linearGradient id="linear-gradient-3" x1="163.62" y1="99.91" x2="163.62" y2="151.39" xlink:href="#linear-gradient"/><linearGradient id="linear-gradient-4" x1="221.34" y1="99.91" x2="221.34" y2="151.39" xlink:href="#linear-gradient"/><linearGradient id="linear-gradient-5" x1="280.23" y1="99.91" x2="280.23" y2="151.39" xlink:href="#linear-gradient"/><linearGradient id="linear-gradient-6" x1="337.59" y1="99.91" x2="337.59" y2="151.39" xlink:href="#linear-gradient"/><linearGradient id="linear-gradient-7" x1="396.04" y1="99.91" x2="396.04" y2="151.39" xlink:href="#linear-gradient"/><linearGradient id="linear-gradient-8" x1="453.64" y1="99.91" x2="453.64" y2="151.39" xlink:href="#linear-gradient"/><linearGradient id="linear-gradient-9" x1="46.5" y1="19.33" x2="46.5" y2="70.81" xlink:href="#linear-gradient"/><linearGradient id="linear-gradient-10" x1="104.94" y1="19.33" x2="104.94" y2="70.81" xlink:href="#linear-gradient"/><linearGradient id="linear-gradient-11" x1="164.11" y1="19.33" x2="164.11" y2="70.81" xlink:href="#linear-gradient"/><linearGradient id="linear-gradient-12" x1="222.52" y1="19.33" x2="222.52" y2="70.81" xlink:href="#linear-gradient"/></defs><title>Artboard 1</title><path class="cls-1" d="M498.19,127.71V80.58H439.76a32,32,0,0,0-12.82,2.65,34.2,34.2,0,0,0-3.09,1.54c-.92-.49-1.87-1-2.85-1.38a35.12,35.12,0,0,0-13.87-2.81h-11c-1.89,0-4.1,0-6.66,0s-5.26,0-8.48,0a30.94,30.94,0,0,0-12.31,2.51c-.63.27-1.24.56-1.85.87-.6-.31-1.22-.61-1.85-.88a31,31,0,0,0-12.25-2.5L327,80.58h-69.3c.31-.29.62-.57.92-.87a35.48,35.48,0,0,0,7.54-11.16A35,35,0,0,0,269,54.67V35.47a35.49,35.49,0,0,0-10.35-25.11,35.61,35.61,0,0,0-11.17-7.55A35.16,35.16,0,0,0,233.62,0H211.49a35.08,35.08,0,0,0-13.88,2.82,36.69,36.69,0,0,0-4.5,2.31,34.25,34.25,0,0,0-4.53-2.38A33.35,33.35,0,0,0,175.17,0H149.08a31.21,31.21,0,0,0-12.23,2.46,31.79,31.79,0,0,0-3.78,1.9,34.44,34.44,0,0,0-3.17-1.55A35.12,35.12,0,0,0,116,0H93.91A35,35,0,0,0,80,2.82,36.6,36.6,0,0,0,75.75,5a37.58,37.58,0,0,0-4.29-2.19A35.12,35.12,0,0,0,57.59,0h-11L39.91,0c-2.43,0-5.25,0-8.48,0a31.11,31.11,0,0,0-12.31,2.5A31.62,31.62,0,0,0,2.5,19.2,31,31,0,0,0,0,31.5V90.14H8.88a31.34,31.34,0,0,0-8.88,22v27.13a31.45,31.45,0,0,0,31.5,31.5H57.59a34.83,34.83,0,0,0,14-2.89,38.28,38.28,0,0,0,4.18-2.15,35.69,35.69,0,0,0,4.08,2.11,34.45,34.45,0,0,0,14,2.93h0l16,0v0h49.82l3.84-16.27,3.85,16.27h67.75A32,32,0,0,0,248,168.08a32.87,32.87,0,0,0,7.72-4.7v7.34H304.5v-7.78a36.32,36.32,0,0,0,8,4.85,34.53,34.53,0,0,0,14.06,2.93h0l23-.06v.06h118a32.09,32.09,0,0,0,12.82-2.64,32.57,32.57,0,0,0,17-17A32.05,32.05,0,0,0,500,138.24,31.38,31.38,0,0,0,498.19,127.71ZM107.25,117V90.14H116a34.62,34.62,0,0,0,14.05-2.93c1-.44,2-.93,2.95-1.45a32.33,32.33,0,0,0,3.81,1.92l.36.14c-.25.19-.51.35-.75.55a35.12,35.12,0,0,0-7.85,8.83,35.6,35.6,0,0,0-4.56,11l-2,8.79Z"/><path class="cls-2" d="M488.87,130.38a23.26,23.26,0,0,0-8.82-11h8.48V90.25H439.76a22.38,22.38,0,0,0-9,1.84A23,23,0,0,0,424,96.58a26.11,26.11,0,0,0-6.83-4.3,25.41,25.41,0,0,0-10.07-2h-11l-6.57,0c-2.45,0-5.31,0-8.57,0a21.35,21.35,0,0,0-8.5,1.72,21.83,21.83,0,0,0-5.65,3.53A22.43,22.43,0,0,0,361.15,92a21.4,21.4,0,0,0-8.47-1.71l-26.11-.07a25.66,25.66,0,0,0-9.2,1.68V90.25H207.46a22.43,22.43,0,0,0-9,1.84,23.12,23.12,0,0,0-7.16,4.85,22.54,22.54,0,0,0-2.54,3.06,25.57,25.57,0,0,0-4-4.09,26.31,26.31,0,0,0-7.39-4.14,25.43,25.43,0,0,0-8.74-1.52h-10A25.3,25.3,0,0,0,150,91.76a26.06,26.06,0,0,0-7.46,4.15,25.6,25.6,0,0,0-5.7,6.42,26.2,26.2,0,0,0-3.33,8l-3.68,16.32H112.36v4.87H97.59V90.25H68.11v2.41c-.33-.15-.64-.32-1-.47a23.92,23.92,0,0,0-9.56-1.94H31.5A21.78,21.78,0,0,0,16,96.62a22,22,0,0,0-4.68,7,21.71,21.71,0,0,0-1.7,8.49v27.13A21.76,21.76,0,0,0,23,159.36a21.62,21.62,0,0,0,8.48,1.7H57.59A25.45,25.45,0,0,0,67.75,159a26.46,26.46,0,0,0,8-5.43,26.16,26.16,0,0,0,8,5.41,25,25,0,0,0,10.16,2.11h0L120,161c.7,0,1.39,0,2.08-.1l0,.17h30.09l1.76-7.44q.93-3.92,1.89-8.31c.06-.29.12-.59.19-.88h15.31c.06.29.13.59.19.88q1,4.41,1.88,8.31l1.76,7.44h60.11a22.25,22.25,0,0,0,9-1.85,22.76,22.76,0,0,0,7.15-4.84,23,23,0,0,0,4.85-7.15,22.31,22.31,0,0,0,1.85-9,21.62,21.62,0,0,0-1.46-7.86,23.87,23.87,0,0,0-3.66-6.3,23.4,23.4,0,0,0-4.69-4.35h17.2v41.33h29.41V119.73h5.93v15.52a25,25,0,0,0,2.11,10.16A26.22,26.22,0,0,0,316.41,159a25,25,0,0,0,10.16,2.11h0l26.08-.07a21.64,21.64,0,0,0,6.54-1v1.07h29.49v-1.22a22.67,22.67,0,0,0,7.38,1.22h71.45a22.27,22.27,0,0,0,9-1.85,22.86,22.86,0,0,0,12-12,22.3,22.3,0,0,0,1.85-9A21.42,21.42,0,0,0,488.87,130.38Z"/><path class="cls-3" d="M69,123.84A16.16,16.16,0,0,1,72.48,129a16.33,16.33,0,0,1,0,12.53A16.15,16.15,0,0,1,69,146.63a16.6,16.6,0,0,1-5.15,3.48,15.57,15.57,0,0,1-6.3,1.28H31.5a12.13,12.13,0,0,1-4.73-.93,12.36,12.36,0,0,1-3.9-2.61,12.21,12.21,0,0,1-3.54-8.63V112.09A12.12,12.12,0,0,1,31.5,99.91H57.59a14.14,14.14,0,0,1,5.71,1.15,14.94,14.94,0,0,1,7.82,7.82,14.14,14.14,0,0,1,1.15,5.71,14.42,14.42,0,0,1-.87,5A14.61,14.61,0,0,1,69,123.84ZM31.5,110.07a2,2,0,0,0-2,2v7H57.59a4.52,4.52,0,1,0,0-9Zm26.09,31.17a5.94,5.94,0,0,0,6-6,6,6,0,0,0-.46-2.33A5.66,5.66,0,0,0,61.84,131a6.79,6.79,0,0,0-1.92-1.28,5.5,5.5,0,0,0-2.33-.49H29.48v9.95a2,2,0,0,0,2,2Z"/><path class="cls-4" d="M87.93,135.25a5.94,5.94,0,0,0,6,6H120a2,2,0,0,0,2-2v-2.85h10.09v2.85a12,12,0,0,1-.94,4.7,12.28,12.28,0,0,1-6.47,6.47,11.91,11.91,0,0,1-4.7.93l-26.09.07a15.31,15.31,0,0,1-6.26-1.28,16.82,16.82,0,0,1-5.12-3.48,16.57,16.57,0,0,1-3.47-5.11,15.36,15.36,0,0,1-1.29-6.27V99.91H87.93Z"/><path class="cls-5" d="M179,134.77H148.25q-1,4.17-1.92,8.48c-.62,2.88-1.24,5.59-1.84,8.14H134.12l8.77-38.89a16.2,16.2,0,0,1,2.09-5,15.65,15.65,0,0,1,3.55-4,15.93,15.93,0,0,1,4.69-2.61,15.72,15.72,0,0,1,5.39-.94h10a15.66,15.66,0,0,1,5.43.94,16.06,16.06,0,0,1,8.21,6.61,16.44,16.44,0,0,1,2.09,5l8.76,38.89H182.76c-.61-2.55-1.22-5.26-1.85-8.14S179.65,137.55,179,134.77Zm-28.46-10.16H176.7c-.32-1.49-.61-2.82-.87-4s-.5-2.22-.73-3.1-.44-2-.62-2.78a6,6,0,0,0-2.13-3.34,5.76,5.76,0,0,0-3.72-1.32h-10a5.88,5.88,0,0,0-3.75,1.32,5.56,5.56,0,0,0-2.09,3.34c-.19.83-.39,1.76-.63,2.78s-.46,1.92-.69,3.1S150.91,123.12,150.54,124.61Z"/><path class="cls-6" d="M206.69,116.26l31.38,9.18a15.07,15.07,0,0,1,4.1,1.85,13.8,13.8,0,0,1,3.24,2.88,14.26,14.26,0,0,1,2.16,3.73,11.9,11.9,0,0,1,.8,4.34,12.64,12.64,0,0,1-1.05,5.12,13.27,13.27,0,0,1-7,7,12.59,12.59,0,0,1-5.11,1H196.05v-9.81h39.17a3.33,3.33,0,0,0,3.34-3.34,3,3,0,0,0-.73-2A4.06,4.06,0,0,0,236,135l-31.38-9.18a15.86,15.86,0,0,1-4.07-1.84,13.47,13.47,0,0,1-5.42-6.61,11.75,11.75,0,0,1-.8-4.35,12.59,12.59,0,0,1,1-5.11,13.22,13.22,0,0,1,2.82-4.18,13.46,13.46,0,0,1,4.17-2.82,12.81,12.81,0,0,1,5.12-1h39.1v9.81h-39.1a3.31,3.31,0,0,0-3.34,3.34,3,3,0,0,0,.73,2A4,4,0,0,0,206.69,116.26Z"/><path class="cls-7" d="M307.71,99.91v10.16H285.17v41.32H275.08V110.07H252.75V99.91Z"/><path class="cls-8" d="M364.76,114.94H354.67v-2.85a2,2,0,0,0-2-2H326.57a5.94,5.94,0,0,0-6,6v3.06h17.74v10.16H320.58v6a5.94,5.94,0,0,0,6,6h26.09a2,2,0,0,0,2-2v-2.85h10.09v2.85a11.78,11.78,0,0,1-.94,4.7,12.08,12.08,0,0,1-2.61,3.86,12.3,12.3,0,0,1-3.86,2.61,11.86,11.86,0,0,1-4.69.93l-26.09.07a15.36,15.36,0,0,1-6.27-1.28,16.58,16.58,0,0,1-8.59-8.59,15.36,15.36,0,0,1-1.29-6.27v-19.2a15.61,15.61,0,0,1,1.29-6.3,16.55,16.55,0,0,1,3.48-5.14,16.17,16.17,0,0,1,5.11-3.45,15.84,15.84,0,0,1,6.27-1.25l26.09.07a11.69,11.69,0,0,1,4.69.94,12.28,12.28,0,0,1,6.47,6.47,11.71,11.71,0,0,1,.94,4.7Z"/><path class="cls-9" d="M381,100c3.3,0,6.18,0,8.67,0l6.47,0h11a15.84,15.84,0,0,1,6.27,1.25,16.17,16.17,0,0,1,5.11,3.45,16.17,16.17,0,0,1,3.76,16.83,16.45,16.45,0,0,1-2.61,4.7,16.2,16.2,0,0,1-9.05,5.63l-8.76,1.95-4.53,1.05-1.94.41a2.81,2.81,0,0,0-1.71,1,3,3,0,0,0-.66,2,3,3,0,0,0,.87,2.15,2.89,2.89,0,0,0,2.19.91H421.4v10.15H396.07a12.88,12.88,0,0,1-5.15-1,13,13,0,0,1-7-7,13.09,13.09,0,0,1-.28-9.56,13.09,13.09,0,0,1,2.15-3.83,13.65,13.65,0,0,1,3.31-2.92,12.87,12.87,0,0,1,4.14-1.71l15.17-3.41a6.13,6.13,0,0,0,3.37-2.12,5.77,5.77,0,0,0,.87-6,6.63,6.63,0,0,0-1.29-1.91,5.44,5.44,0,0,0-1.88-1.29,5.94,5.94,0,0,0-2.33-.45H381a2,2,0,0,0-2,2v39.3H368.87v-39.3a11.71,11.71,0,0,1,.94-4.7,12.28,12.28,0,0,1,6.47-6.47A11.69,11.69,0,0,1,381,100Z"/><path class="cls-10" d="M439,116.26l31.38,9.18a15.07,15.07,0,0,1,4.1,1.85,13.51,13.51,0,0,1,5.39,6.61,11.7,11.7,0,0,1,.8,4.34,12.81,12.81,0,0,1-1,5.12,13.46,13.46,0,0,1-2.82,4.17,13.13,13.13,0,0,1-4.17,2.82,12.64,12.64,0,0,1-5.12,1H428.35v-9.81h39.17a3.31,3.31,0,0,0,3.34-3.34,2.93,2.93,0,0,0-.73-2,4,4,0,0,0-1.84-1.19l-31.38-9.18a15.71,15.71,0,0,1-4.07-1.84,13.41,13.41,0,0,1-3.27-2.89,14,14,0,0,1-2.16-3.72,12,12,0,0,1-.8-4.35,12.6,12.6,0,0,1,1.05-5.11,13.2,13.2,0,0,1,2.81-4.18,13.63,13.63,0,0,1,4.18-2.82,12.76,12.76,0,0,1,5.11-1h39.1v9.81h-39.1a3.33,3.33,0,0,0-3.34,3.34,3,3,0,0,0,.73,2A4,4,0,0,0,439,116.26Z"/><path class="cls-2" d="M257.33,25.41A25.68,25.68,0,0,0,233.62,9.66H211.49a25.46,25.46,0,0,0-10.07,2,25.75,25.75,0,0,0-8.14,5.49c-.1.1-.18.21-.28.31-.21-.23-.41-.47-.63-.7a24.86,24.86,0,0,0-7.64-5.19,23.93,23.93,0,0,0-9.56-1.95H149.08A21.85,21.85,0,0,0,133.62,16c-.1.1-.19.22-.29.32a25.75,25.75,0,0,0-7.23-4.66,25.42,25.42,0,0,0-10.07-2H93.91a25.42,25.42,0,0,0-10.07,2,26,26,0,0,0-8.09,5.44,26,26,0,0,0-8.09-5.44,25.42,25.42,0,0,0-10.07-2h-11c-1.86,0-4,0-6.57,0s-5.31,0-8.57,0a21.52,21.52,0,0,0-8.5,1.72A21.94,21.94,0,0,0,11.38,23a21.49,21.49,0,0,0-1.72,8.5v49H39.15V79.26a22.67,22.67,0,0,0,7.38,1.22h35V77.26c.72.4,1.47.77,2.23,1.11a25,25,0,0,0,10.16,2.11H116a25,25,0,0,0,10.16-2.11,26.4,26.4,0,0,0,7.11-4.63l.32.36a21.85,21.85,0,0,0,15.46,6.38h26.09a25.29,25.29,0,0,0,10.16-2.1,26.43,26.43,0,0,0,8-5.42,26.34,26.34,0,0,0,8,5.41,25,25,0,0,0,10.16,2.11h22.13a25,25,0,0,0,10.15-2.11,26.55,26.55,0,0,0,8.06-5.49,26.09,26.09,0,0,0,5.49-8.14,25.41,25.41,0,0,0,2-10.07V35.47A25.6,25.6,0,0,0,257.33,25.41ZM112.36,51H97.59V39.15h14.77Zm117.58,0H215.17V39.15h14.77Z"/><path class="cls-11" d="M31.43,19.4c3.3,0,6.18,0,8.66,0l6.48,0h11a15.59,15.59,0,0,1,6.26,1.25,15.94,15.94,0,0,1,8.56,8.59,15.89,15.89,0,0,1,1.25,6.3,15.72,15.72,0,0,1-.94,5.39,16.32,16.32,0,0,1-2.6,4.7,16,16,0,0,1-4,3.54,16.36,16.36,0,0,1-5.05,2.09l-8.77,2-4.52,1-2,.42a2.85,2.85,0,0,0-1.7,1,3.07,3.07,0,0,0-.66,2,3,3,0,0,0,.87,2.16,2.92,2.92,0,0,0,2.19.9H71.86V70.81H46.53a13,13,0,0,1-5.15-1A13.53,13.53,0,0,1,37.17,67a13.3,13.3,0,0,1-2.82-4.21,13.13,13.13,0,0,1,1.88-13.39,13.65,13.65,0,0,1,3.31-2.92,12.77,12.77,0,0,1,4.14-1.71l15.17-3.41a6.16,6.16,0,0,0,3.37-2.12,5.77,5.77,0,0,0,.87-6,7,7,0,0,0-1.29-1.92,5.56,5.56,0,0,0-1.88-1.28,6,6,0,0,0-2.33-.46H31.5a2,2,0,0,0-2,2V70.81H19.33V31.5a11.69,11.69,0,0,1,.94-4.69,12.1,12.1,0,0,1,6.47-6.47A11.69,11.69,0,0,1,31.43,19.4Z"/><path class="cls-12" d="M77.77,35.47a15.57,15.57,0,0,1,1.29-6.3A16.4,16.4,0,0,1,82.53,24a16.19,16.19,0,0,1,5.12-3.44,15.62,15.62,0,0,1,6.26-1.25H116a15.67,15.67,0,0,1,6.27,1.25,16,16,0,0,1,8.55,8.59,15.89,15.89,0,0,1,1.26,6.3v19.2a15.63,15.63,0,0,1-1.26,6.26,16.19,16.19,0,0,1-3.44,5.12,16.57,16.57,0,0,1-5.11,3.47A15.36,15.36,0,0,1,116,70.81H93.91a15.32,15.32,0,0,1-6.26-1.29,16.39,16.39,0,0,1-8.59-8.59,15.32,15.32,0,0,1-1.29-6.26Zm10.16,19.2a5.92,5.92,0,0,0,6,6H116a6,6,0,0,0,2.34-.45,5.62,5.62,0,0,0,1.87-1.28A6.61,6.61,0,0,0,121.53,57a5.66,5.66,0,0,0,.49-2.33V35.47a5.66,5.66,0,0,0-.49-2.33,6.61,6.61,0,0,0-1.29-1.92,5.62,5.62,0,0,0-1.87-1.28,6,6,0,0,0-2.34-.46H93.91a5.94,5.94,0,0,0-6,6Z"/><path class="cls-13" d="M186.58,43.26a16.05,16.05,0,0,1,3.48,5.15,16.3,16.3,0,0,1,0,12.52,16.19,16.19,0,0,1-3.44,5.12,16.4,16.4,0,0,1-5.15,3.47,15.57,15.57,0,0,1-6.3,1.29H149.08a12.12,12.12,0,0,1-12.17-12.17V31.5a12,12,0,0,1,.94-4.73,12,12,0,0,1,6.5-6.5,12,12,0,0,1,4.73-.94h26.09a14.31,14.31,0,0,1,5.71,1.14,15.22,15.22,0,0,1,4.66,3.17,15,15,0,0,1,3.16,4.66A14.14,14.14,0,0,1,189.85,34a14.42,14.42,0,0,1-.87,5A14.74,14.74,0,0,1,186.58,43.26Zm-37.5-13.78a2,2,0,0,0-2,2v7h28.11a4.52,4.52,0,0,0,3.2-7.72,4.36,4.36,0,0,0-3.2-1.33Zm26.09,31.17a6,6,0,0,0,5.53-8.31,5.56,5.56,0,0,0-1.28-1.88,7,7,0,0,0-1.92-1.29,5.65,5.65,0,0,0-2.33-.48H147.06v10a2,2,0,0,0,2,2Z"/><path class="cls-14" d="M195.35,35.47a15.57,15.57,0,0,1,1.29-6.3A16.26,16.26,0,0,1,200.12,24a16,16,0,0,1,5.11-3.44,15.66,15.66,0,0,1,6.26-1.25h22.13a15.66,15.66,0,0,1,6.26,1.25,16.13,16.13,0,0,1,9.81,14.89v19.2a15.63,15.63,0,0,1-1.26,6.26A16.19,16.19,0,0,1,245,66.05a16.45,16.45,0,0,1-5.11,3.47,15.35,15.35,0,0,1-6.26,1.29H211.49a15.35,15.35,0,0,1-6.26-1.29,16.49,16.49,0,0,1-8.59-8.59,15.32,15.32,0,0,1-1.29-6.26Zm10.16,19.2a5.92,5.92,0,0,0,6,6h22.13A6,6,0,0,0,236,60.2a5.66,5.66,0,0,0,1.88-1.28A6.79,6.79,0,0,0,239.11,57a5.5,5.5,0,0,0,.49-2.33V35.47a5.5,5.5,0,0,0-.49-2.33,6.79,6.79,0,0,0-1.28-1.92A5.66,5.66,0,0,0,236,29.94a6,6,0,0,0-2.33-.46H211.49a5.94,5.94,0,0,0-6,6Z"/></svg>