<svg id="Layer_1" data-name="Layer 1" xmlns="http://www.w3.org/2000/svg" xmlns:xlink="http://www.w3.org/1999/xlink" viewBox="0 0 73.66 70.81"><defs><style>.cls-1{fill:#603;}.cls-2{fill:url(#linear-gradient);}</style><linearGradient id="linear-gradient" x1="36.83" y1="9.66" x2="36.83" y2="61.15" gradientUnits="userSpaceOnUse"><stop offset="0" stop-color="#e6d6ff"/><stop offset="1" stop-color="purple"/></linearGradient></defs><title>Artboard 1</title><path class="cls-1" d="M36.87,70.81a22.73,22.73,0,0,1-7.39-1.22v1.22H0v-49a21.45,21.45,0,0,1,1.72-8.5A22,22,0,0,1,13.26,1.79,21.53,21.53,0,0,1,21.77.07c3.26,0,6.11,0,8.57,0L36.9,0h11A25.41,25.41,0,0,1,58,2,25.73,25.73,0,0,1,71.65,15.74a25.63,25.63,0,0,1,2,10.06,25.32,25.32,0,0,1-1.51,8.67,26,26,0,0,1-3.68,6.86h3.39V70.81Z"/><path class="cls-2" d="M21.77,9.73q4.93,0,8.66,0c2.48,0,4.64,0,6.47,0h11a15.63,15.63,0,0,1,6.26,1.26A16.08,16.08,0,0,1,64,25.8a15.74,15.74,0,0,1-.94,5.4,15.93,15.93,0,0,1-2.61,4.69,15.67,15.67,0,0,1-4,3.55,16.2,16.2,0,0,1-5,2.09q-5.71,1.24-8.77,1.95l-4.52,1-1.95.42a2.8,2.8,0,0,0-1.7,1,3.16,3.16,0,0,0,.21,4.11,2.89,2.89,0,0,0,2.19.9H62.19V61.15H36.87a13,13,0,0,1-5.15-1,13.3,13.3,0,0,1-4.21-2.82,13.53,13.53,0,0,1-2.82-4.21,13.25,13.25,0,0,1-.28-9.57,12.85,12.85,0,0,1,2.16-3.82,13.83,13.83,0,0,1,3.3-2.93A12.71,12.71,0,0,1,34,35.06l15.17-3.41a6.15,6.15,0,0,0,3.38-2.12,5.85,5.85,0,0,0,.87-6.06,7.14,7.14,0,0,0-1.29-1.91,5.68,5.68,0,0,0-1.88-1.29,6,6,0,0,0-2.33-.45H21.84a2,2,0,0,0-2,2V61.15H9.66V21.84a11.92,11.92,0,0,1,.94-4.7,12.28,12.28,0,0,1,6.47-6.47A11.92,11.92,0,0,1,21.77,9.73Z"/></svg>